{"title":"Fast Five 2011 720p BDRiP XViD AC3 - IMAGiNE","uid":6630266,"size":3748390275,"categoryP":"video","categoryS":"hd___movies","magnet":"?xt=urn:btih:aaa46b81fba65be27ee36f53098204460c5c3629&amp;dn=Fast+Five+2011+720p+BDRiP+XViD+AC3+-+IMAGiNE&amp;tr=udp%3A%2F%2Ftracker.openbittorrent.com%3A80&amp;tr=udp%3A%2F%2Fopen.demonii.com%3A1337&amp;tr=udp%3A%2F%2Ftracker.coppersurfer.tk%3A6969&amp;tr=udp%3A%2F%2Fexodus.desync.com%3A6969","seeders":0,"leechers":1,"uploader":"sceneline","files":80,"time":1314306872,"description":"- &lt;a href=&quot;\nhttp://www.Speed.Cd&quot; rel=&quot;nofollow&quot; target=&quot;_NEW&quot;&gt;\nhttp://www.Speed.Cd&lt;/a&gt; \n       &lt;a href=&quot;\nhttp://www.Speed.Cd&quot; rel=&quot;nofollow&quot; target=&quot;_NEW&quot;&gt;\nhttp://www.Speed.Cd&lt;/a&gt;      fast  and The Hottest Private Tracker on the net\n\n(((--Submit for invite!!--)))\n\nPlease Seed back to make the speed Faster!!!\n\n------------------nfo--------------------------\n-  \n\n[pre]ooooo ooo        ooooo       .o.         .oooooo.     o8o  ooooo      ooo oooooooooooo \n\n      888' `88.       .888'      .888.       d8P'  `Y8b    `&quot;'  `888b.     `8' `888'     `8 \n\n      888   888b     d'888      .8&quot;888.     888           oooo   8 `88b.    8   888         \n\n      888   8 Y88. .P  888     .8' `888.    888           `888   8   `88b.  8   888oooo8    \n\n      888   8  `888'   888    .88ooo8888.   888     ooooo  888   8     `88b.8   888    &quot;    \n\n      888   8    Y     888   .8'     `888.  `88.    .88'   888   8       `888   888       o \n\n     o888o o8o        o888o o88o     o8888o  `Y8bood8P'   o888o o8o        `8  o888ooooood8  \n\n                                                \n\n\n\n\n\n\n\n                  Another Fine Release Brought to you from - IMAGiNE                   \n\n                                                 \n\n\n\n******************************************************************************************                              \n\n                     Fast Five 2011 720p BDRiP XViD AC3 - IMAGiNE                                                                \n\n******************************************************************************************\n\n\n\nRipper ...........: IMAGiNE              IMDB Rating.......: 7.6/10                             \n\nVideo Codec.......: XViD                 Release Date......: 18/08/11\n\nAudio Codec.......: AC3                  Theatre Date......: 29/04/11\n\nAudio Bitrate.....: 448                  Runtime...........: 2h 10mn\n\nSubtitles.........: ENGLISH              Language..........: ENGLISH\n\nResolution........: 1280 x 544           IMDb URL..........: http://www.imdb.com/title/tt1596343/\n\n\n\n\n\n[color=yellow]DETAILS:[/color]\n\n\n\nVideo\nID                               : 0\nFormat                           : MPEG-4 Visual\nFormat profile                   : Advanced Simple@L5\nFormat settings, BVOP            : 2\nFormat settings, QPel            : No\nFormat settings, GMC             : No warppoints\nFormat settings, Matrix          : Default (MPEG)\nMuxing mode                      : Packed bitstream\nCodec ID                         : XVID\nCodec ID/Hint                    : XviD\nDuration                         : 2h 10mn\nBit rate                         : 3 343 Kbps\nWidth                            : 1 280 pixels\nHeight                           : 544 pixels\nDisplay aspect ratio             : 2.35:1\nFrame rate                       : 23.976 fps\nColor space                      : YUV\nChroma subsampling               : 4:2:0\nBit depth                        : 8 bits\nScan type                        : Progressive\nCompression mode                 : Lossy\nBits/(Pixel*Frame)               : 0.200\nStream size                      : 3.04 GiB (88%)\nWriting library                  : XviD 64\n\nAudio\nID                               : 1\nFormat                           : AC-3\nFormat/Info                      : Audio Coding 3\nMode extension                   : CM (complete main)\nCodec ID                         : 2000\nDuration                         : 2h 10mn\nBit rate mode                    : Constant\nBit rate                         : 448 Kbps\nChannel(s)                       : 6 channels\nChannel positions                : Front: L C R, Side: L R, LFE\nSampling rate                    : 48.0 KHz\nBit depth                        : 16 bits\nCompression mode                 : Lossy\nStream size                      : 418 MiB (12%)\nAlignment                        : Aligned on interleaves\nInterleave, duration             : 42 ms (1.00 video frame)\n\n\n\n\n\n\n\n[color=yellow]SOURCES:[/color]\n\n\n\nVIDEO: ....... FAST_FIVE_G52\n\nAUDIO: ....... FAST_FIVE_G52 Thanks Mate :D\n\n\n\n[color=yellow]NOTES:[/color]\n\nIMAGiNE bringing you another release..........\nFast Five 720p BDRiP.......\nOk so first we made a script to crop \nresize and sharpen.........\nThen we took the subtitles from source\nand hardcoded them to our encode :P\nLast we converted the DTS to AC3 and muxed\nEnjoy Folks!\n\n\n\n\n\n\n\n\n\n[color=yellow]SCREENS:[/color]\n\n\n\n[IMG]http://i.imgur.com/9SN3u.jpg[/IMG]\n\n[IMG]http://i.imgur.com/UlTZG.jpg[/IMG]\n\n[IMG]http://i.imgur.com/8qhcB.jpg[/IMG]\n\n[IMG]http://i.imgur.com/a0khs.jpg[/IMG]\n\n[IMG]http://i.imgur.com/x2ohB.jpg[/IMG]\n\n[IMG]http://i.imgur.com/iW4cm.jpg[/IMG]\n\n[IMG]http://i.imgur.com/4cJqV.jpg[/IMG]\n\n\n\n[color=yellow]GREETS:[/color]\n\n\n\nFLAWL3SS,KINOPARK,Rx,ELEKTRI4KA,ADDiCTED,Autotron,CiNEDUB,\n\nAnd to all the other p2p grps past and present \n\n\n\n[COLOR=RED]Looking for these,syncers,cammers,audio,silver supplier.....Have anything to offer????......\n\nContact us &lt;a class=&quot;__cf_email__&quot; href=&quot;/cdn-cgi/l/email-protection&quot; data-cfemail=&quot;620b0f03050b0c0705100d1712220a17110a0f030b0e4c010d0f&quot;&gt;[email&amp;#160;protected]&lt;/a&gt;&lt;script cf-hash='f9e31' type=&quot;text/javascript&quot;&gt;\n/* &lt;![CDATA[ */!function(){try{var t=&quot;currentScript&quot;in document?document.currentScript:function(){for(var t=document.getElementsByTagName(&quot;script&quot;),e=t.length;e--;)if(t[e].getAttribute(&quot;cf-hash&quot;))return t[e]}();if(t&amp;&amp;t.previousSibling){var e,r,n,i,c=t.previousSibling,a=c.getAttribute(&quot;data-cfemail&quot;);if(a){for(e=&quot;&quot;,r=parseInt(a.substr(0,2),16),n=2;a.length-n;n+=2)i=parseInt(a.substr(n,2),16)^r,e+=String.fromCharCode(i);e=document.createTextNode(e),c.parentNode.replaceChild(e,c)}}}catch(u){}}();/* ]]&gt; */&lt;/script&gt;[/COLOR]","torrent":{"xt":"urn:btih:aaa46b81fba65be27ee36f53098204460c5c3629","amp;dn":"Fast+Five+2011+720p+BDRiP+XViD+AC3+-+IMAGiNE","amp;tr":["udp%3A%2F%2Ftracker.openbittorrent.com%3A80","udp%3A%2F%2Fopen.demonii.com%3A1337","udp%3A%2F%2Ftracker.coppersurfer.tk%3A6969","udp%3A%2F%2Fexodus.desync.com%3A6969"],"infoHash":"aaa46b81fba65be27ee36f53098204460c5c3629","infoHashBuffer":{"type":"Buffer","data":[170,164,107,129,251,166,91,226,126,227,111,83,9,130,4,70,12,92,54,41]},"announce":[],"urlList":[]}}